<svg width="30" height="30" viewBox="0 0 30 30" fill="none" xmlns="http://www.w3.org/2000/svg">
<path d="M15.6638 0.0253125C17.2997 0 18.9263 0.015 20.5509 0C20.6494 1.91344 21.3375 3.8625 22.7381 5.21531C24.1359 6.60188 26.1131 7.23656 28.0369 7.45125V12.4847C26.2341 12.4256 24.4228 12.0506 22.7869 11.2744C22.0744 10.9519 21.4106 10.5366 20.7609 10.1119C20.7525 13.7644 20.7759 17.4122 20.7375 21.0497C20.64 22.7972 20.0634 24.5363 19.0472 25.9763C17.4122 28.3734 14.5744 29.9362 11.6597 29.985C9.87188 30.0872 8.08595 29.5997 6.56251 28.7016C4.03782 27.2128 2.26126 24.4875 2.00251 21.5625C1.96992 20.943 1.96491 20.3224 1.98751 19.7025C2.21251 17.3241 3.38907 15.0488 5.21532 13.5009C7.28532 11.6981 10.185 10.8394 12.9 11.3475C12.9253 13.1991 12.8513 15.0488 12.8513 16.9003C11.6109 16.4991 10.1616 16.6116 9.07782 17.3644C8.28492 17.8867 7.68573 18.6552 7.37251 19.5516C7.11376 20.1853 7.18782 20.8894 7.20282 21.5625C7.50001 23.6137 9.47251 25.3378 11.5781 25.1512C12.9741 25.1362 14.3119 24.3263 15.0394 23.1403C15.2747 22.725 15.5381 22.3003 15.5522 21.8119C15.675 19.5759 15.6263 17.3494 15.6413 15.1134C15.6516 10.0744 15.6263 5.04937 15.6647 0.02625L15.6638 0.0253125Z" fill="white"/>
</svg>
