<svg width="24" height="24" viewBox="0 0 24 24" fill="none" xmlns="http://www.w3.org/2000/svg">
<path d="M9.59985 8.4C9.59985 7.76348 9.85271 7.15303 10.3028 6.70294C10.7529 6.25286 11.3633 6 11.9999 6C12.6364 6 13.2468 6.25286 13.6969 6.70294C14.147 7.15303 14.3999 7.76348 14.3999 8.4C14.3999 9.03652 14.147 9.64697 13.6969 10.0971C13.2468 10.5471 12.6364 10.8 11.9999 10.8C11.3633 10.8 10.7529 10.5471 10.3028 10.0971C9.85271 9.64697 9.59985 9.03652 9.59985 8.4Z" fill="#06823A"/>
<path d="M8.99995 12H14.9999C15.4773 12 15.9352 12.1896 16.2727 12.5272C16.6103 12.8648 16.7999 13.3226 16.7999 13.8C16.7999 15.1392 16.2491 16.212 15.3455 16.938C14.4563 17.652 13.2635 18 11.9999 18C10.7364 18 9.54355 17.652 8.65435 16.938C7.75195 16.212 7.19995 15.1392 7.19995 13.8C7.19995 13.3226 7.38959 12.8648 7.72716 12.5272C8.06472 12.1896 8.52256 12 8.99995 12Z" fill="#06823A"/>
<path d="M11.9999 2.3999C9.45382 2.3999 7.01203 3.41133 5.21168 5.21168C3.41133 7.01203 2.3999 9.45382 2.3999 11.9999C2.3999 14.546 3.41133 16.9878 5.21168 18.7881C7.01203 20.5885 9.45382 21.5999 11.9999 21.5999C14.546 21.5999 16.9878 20.5885 18.7881 18.7881C20.5885 16.9878 21.5999 14.546 21.5999 11.9999C21.5999 9.45382 20.5885 7.01203 18.7881 5.21168C16.9878 3.41133 14.546 2.3999 11.9999 2.3999ZM3.5999 11.9999C3.5999 10.8968 3.81717 9.8045 4.23931 8.78536C4.66145 7.76623 5.28019 6.84022 6.06021 6.0602C6.84022 5.28019 7.76623 4.66145 8.78536 4.23931C9.8045 3.81717 10.8968 3.5999 11.9999 3.5999C13.103 3.5999 14.1953 3.81717 15.2144 4.23931C16.2336 4.66145 17.1596 5.28019 17.9396 6.0602C18.7196 6.84022 19.3384 7.76623 19.7605 8.78536C20.1826 9.8045 20.3999 10.8968 20.3999 11.9999C20.3999 14.2277 19.5149 16.3643 17.9396 17.9396C16.3643 19.5149 14.2277 20.3999 11.9999 20.3999C9.77208 20.3999 7.63551 19.5149 6.06021 17.9396C4.4849 16.3643 3.5999 14.2277 3.5999 11.9999Z" fill="#06823A"/>
</svg>
