<svg width="136" height="25" viewBox="0 0 136 25" fill="none" xmlns="http://www.w3.org/2000/svg">
<path d="M10.7909 3.65292C10.9024 3.42708 11.0749 3.23694 11.2888 3.10398C11.5027 2.97103 11.7496 2.90057 12.0014 2.90057C12.2533 2.90057 12.5001 2.97103 12.7141 3.10398C12.928 3.23694 13.1004 3.42708 13.2119 3.65292L15.4934 8.27592L20.5949 9.01692C20.8443 9.05289 21.0787 9.15794 21.2715 9.32018C21.4643 9.48243 21.6078 9.69539 21.6858 9.93498C21.7639 10.1746 21.7733 10.4312 21.7131 10.6759C21.6528 10.9205 21.5253 11.1435 21.3449 11.3194L17.6519 14.9194L18.5234 19.9999C18.5658 20.2481 18.5379 20.5033 18.4429 20.7364C18.3478 20.9696 18.1895 21.1716 17.9857 21.3195C17.7819 21.4674 17.5408 21.5554 17.2897 21.5735C17.0385 21.5916 16.7873 21.5391 16.5644 21.4219L12.0014 19.0249L7.43843 21.4249C7.21531 21.5424 6.96375 21.595 6.71226 21.5768C6.46077 21.5586 6.2194 21.4703 6.0155 21.322C5.81159 21.1737 5.6533 20.9712 5.55855 20.7376C5.46381 20.5039 5.4364 20.2484 5.47943 19.9999L6.34943 14.9194L2.65943 11.3209C2.4791 11.1451 2.35156 10.9223 2.29124 10.6777C2.23091 10.4331 2.24022 10.1766 2.31809 9.93704C2.39596 9.6975 2.5393 9.48451 2.73189 9.32218C2.92449 9.15984 3.15866 9.05462 3.40793 9.01842L8.50793 8.27742L10.7909 3.65442V3.65292Z" fill="#FBBC05"/>
<path d="M38.7909 3.65292C38.9024 3.42708 39.0749 3.23694 39.2888 3.10398C39.5027 2.97103 39.7496 2.90057 40.0014 2.90057C40.2533 2.90057 40.5001 2.97103 40.7141 3.10398C40.928 3.23694 41.1004 3.42708 41.2119 3.65292L43.4934 8.27592L48.5949 9.01692C48.8443 9.05289 49.0787 9.15794 49.2715 9.32018C49.4643 9.48243 49.6078 9.69539 49.6858 9.93498C49.7639 10.1746 49.7733 10.4312 49.7131 10.6759C49.6528 10.9205 49.5253 11.1435 49.3449 11.3194L45.6519 14.9194L46.5234 19.9999C46.5658 20.2481 46.5379 20.5033 46.4429 20.7364C46.3478 20.9696 46.1895 21.1716 45.9857 21.3195C45.7819 21.4674 45.5408 21.5554 45.2897 21.5735C45.0385 21.5916 44.7873 21.5391 44.5644 21.4219L40.0014 19.0249L35.4384 21.4249C35.2153 21.5424 34.9637 21.595 34.7123 21.5768C34.4608 21.5586 34.2194 21.4703 34.0155 21.322C33.8116 21.1737 33.6533 20.9712 33.5586 20.7376C33.4638 20.5039 33.4364 20.2484 33.4794 19.9999L34.3494 14.9194L30.6594 11.3209C30.4791 11.1451 30.3516 10.9223 30.2912 10.6777C30.2309 10.4331 30.2402 10.1766 30.3181 9.93704C30.396 9.6975 30.5393 9.48451 30.7319 9.32218C30.9245 9.15984 31.1587 9.05462 31.4079 9.01842L36.5079 8.27742L38.7909 3.65442V3.65292Z" fill="#FBBC05"/>
<path d="M66.7909 3.65292C66.9024 3.42708 67.0749 3.23694 67.2888 3.10398C67.5027 2.97103 67.7496 2.90057 68.0014 2.90057C68.2533 2.90057 68.5001 2.97103 68.7141 3.10398C68.928 3.23694 69.1004 3.42708 69.2119 3.65292L71.4934 8.27592L76.5949 9.01692C76.8443 9.05289 77.0787 9.15794 77.2715 9.32018C77.4643 9.48243 77.6078 9.69539 77.6858 9.93498C77.7639 10.1746 77.7733 10.4312 77.7131 10.6759C77.6528 10.9205 77.5253 11.1435 77.3449 11.3194L73.6519 14.9194L74.5234 19.9999C74.5658 20.2481 74.5379 20.5033 74.4429 20.7364C74.3478 20.9696 74.1895 21.1716 73.9857 21.3195C73.7819 21.4674 73.5408 21.5554 73.2897 21.5735C73.0385 21.5916 72.7873 21.5391 72.5644 21.4219L68.0014 19.0249L63.4384 21.4249C63.2153 21.5424 62.9637 21.595 62.7123 21.5768C62.4608 21.5586 62.2194 21.4703 62.0155 21.322C61.8116 21.1737 61.6533 20.9712 61.5586 20.7376C61.4638 20.5039 61.4364 20.2484 61.4794 19.9999L62.3494 14.9194L58.6594 11.3209C58.4791 11.1451 58.3516 10.9223 58.2912 10.6777C58.2309 10.4331 58.2402 10.1766 58.3181 9.93704C58.396 9.6975 58.5393 9.48451 58.7319 9.32218C58.9245 9.15984 59.1587 9.05462 59.4079 9.01842L64.5079 8.27742L66.7909 3.65442V3.65292Z" fill="#FBBC05"/>
<path d="M94.7909 3.65292C94.9024 3.42708 95.0749 3.23694 95.2888 3.10398C95.5027 2.97103 95.7496 2.90057 96.0014 2.90057C96.2533 2.90057 96.5001 2.97103 96.7141 3.10398C96.928 3.23694 97.1004 3.42708 97.2119 3.65292L99.4934 8.27592L104.595 9.01692C104.844 9.05289 105.079 9.15794 105.271 9.32018C105.464 9.48243 105.608 9.69539 105.686 9.93498C105.764 10.1746 105.773 10.4312 105.713 10.6759C105.653 10.9205 105.525 11.1435 105.345 11.3194L101.652 14.9194L102.523 19.9999C102.566 20.2481 102.538 20.5033 102.443 20.7364C102.348 20.9696 102.189 21.1716 101.986 21.3195C101.782 21.4674 101.541 21.5554 101.29 21.5735C101.039 21.5916 100.787 21.5391 100.564 21.4219L96.0014 19.0249L91.4384 21.4249C91.2153 21.5424 90.9637 21.595 90.7123 21.5768C90.4608 21.5586 90.2194 21.4703 90.0155 21.322C89.8116 21.1737 89.6533 20.9712 89.5586 20.7376C89.4638 20.5039 89.4364 20.2484 89.4794 19.9999L90.3494 14.9194L86.6594 11.3209C86.4791 11.1451 86.3516 10.9223 86.2912 10.6777C86.2309 10.4331 86.2402 10.1766 86.3181 9.93704C86.396 9.6975 86.5393 9.48451 86.7319 9.32218C86.9245 9.15984 87.1587 9.05462 87.4079 9.01842L92.5079 8.27742L94.7909 3.65442V3.65292Z" fill="#FBBC05"/>
<path d="M122.791 3.65292C122.902 3.42708 123.075 3.23694 123.289 3.10398C123.503 2.97103 123.75 2.90057 124.001 2.90057C124.253 2.90057 124.5 2.97103 124.714 3.10398C124.928 3.23694 125.1 3.42708 125.212 3.65292L127.493 8.27592L132.595 9.01692C132.844 9.05289 133.079 9.15794 133.271 9.32018C133.464 9.48243 133.608 9.69539 133.686 9.93498C133.764 10.1746 133.773 10.4312 133.713 10.6759C133.653 10.9205 133.525 11.1435 133.345 11.3194L129.652 14.9194L130.523 19.9999C130.566 20.2481 130.538 20.5033 130.443 20.7364C130.348 20.9696 130.189 21.1716 129.986 21.3195C129.782 21.4674 129.541 21.5554 129.29 21.5735C129.039 21.5916 128.787 21.5391 128.564 21.4219L124.001 19.0249L119.438 21.4249C119.215 21.5424 118.964 21.595 118.712 21.5768C118.461 21.5586 118.219 21.4703 118.015 21.322C117.812 21.1737 117.653 20.9712 117.559 20.7376C117.464 20.5039 117.436 20.2484 117.479 19.9999L118.349 14.9194L114.659 11.3209C114.479 11.1451 114.352 10.9223 114.291 10.6777C114.231 10.4331 114.24 10.1766 114.318 9.93704C114.396 9.6975 114.539 9.48451 114.732 9.32218C114.924 9.15984 115.159 9.05462 115.408 9.01842L120.508 8.27742L122.791 3.65442V3.65292Z" fill="#FBBC05"/>
</svg>
